<svg xmlns="http://www.w3.org/2000/svg" viewBox="0 0 9 9"><circle cx="4.5" cy="4.5" r="4.5" fill="#e54041"/><path d="M2.467 6.454h-.682a.414.414 0 01-.138-.023.243.243 0 01-.166-.304.554.554 0 01.06-.147l1.206-2.122 1.47-2.59a.475.475 0 01.122-.148.235.235 0 01.313.007.467.467 0 01.109.136c.218.399.446.792.67 1.188a.834.834 0 01.102.46.81.81 0 01-.085.33c-.036.072-.079.14-.12.21L3.837 6.037a.827.827 0 01-.548.4.753.753 0 01-.178.018h-.643z" fill="#fdfdfd"/><path d="M6.268 6.454H5.32a.406.406 0 01-.14-.024.246.246 0 01-.165-.302.492.492 0 01.056-.142l.935-1.612a.475.475 0 01.108-.131.24.24 0 01.325.001.487.487 0 01.108.134l.914 1.606a.44.44 0 01.065.184.24.24 0 01-.176.264.529.529 0 01-.17.023h-.912z" fill="#fefefe"/></svg>