<svg xmlns="http://www.w3.org/2000/svg" viewBox="0 0 9.002 9.002"><g data-name="Layer 2"><circle cx="4.501" cy="4.501" r="4.5" fill="#46aa46"/><path d="M6.378 3.967a1.338 1.338 0 00-.491-.082 1.246 1.246 0 00.247-.333 1 1 0 00.036-.464.923.923 0 00-.506-.705 1.748 1.748 0 00-1.03-.054l-.217-.87-.536.134.214.86-.408.101-.214-.86-.537.134.215.86-1.055.263.139.556.31-.077a.456.456 0 01.319.007c.081.055.102.09.137.229l.553 2.219a.224.224 0 01-.015.174c-.035.054-.077.075-.185.102l-.32.08.05.671 1.054-.263.214.857.536-.134-.214-.857.409-.101.213.857.537-.134-.218-.871c.137-.043.264-.085.337-.114a1.837 1.837 0 00.75-.49 1.109 1.109 0 00.17-1.035.883.883 0 00-.494-.66zm-2.54-.806s.167-.058.335-.097a1.76 1.76 0 01.555-.059.478.478 0 01.463.34.433.433 0 01-.129.466 1.345 1.345 0 01-.52.273 8.141 8.141 0 01-.446.112zm1.84 2.264a1.754 1.754 0 01-.57.296c-.234.077-.592.158-.592.158L4.23 4.73s.337-.102.607-.151a1.77 1.77 0 01.622-.011.489.489 0 01.22.858z" fill="#fff" data-name="surface1"/></g></svg>