<svg xmlns="http://www.w3.org/2000/svg" viewBox="0 0 9 9"><g data-name="Layer 2"><circle cx="4.5" cy="4.5" r="4.5" fill="#3f3f41"/><path d="M4.738 7.579c-.01.01-.02.01-.04.01h-.21a3.026 3.026 0 01-1.9-.66 2.217 2.217 0 01-.54-.77 2.998 2.998 0 01-.2-.57 3.067 3.067 0 01-.07-.6v-.1l.01-.18a3.144 3.144 0 01.11-.55 2.802 2.802 0 01.22-.53 2.558 2.558 0 01.33-.48 2.69 2.69 0 01.45-.44 3.54 3.54 0 01.53-.32 3.177 3.177 0 01.57-.19 2.877 2.877 0 01.59-.07h.06v.44h-.05a2.449 2.449 0 00-1.82.86 2.383 2.383 0 00-.56 1.53 2.51 2.51 0 00.91 1.97 2.897 2.897 0 001.25.58 2.098 2.098 0 00.36.07z" fill="#fff"/><path d="M6.058 7.159c-.01 0-.01.01-.02.01a1.616 1.616 0 01-.23.11l-.01.01c-.08.03-.15.06-.3.12-.11 0-.47-.01-.74-.04a3.486 3.486 0 01-1-.28 2.657 2.657 0 01-.7-.52 2.23 2.23 0 01-.59-1.67 2.551 2.551 0 01.07-.43 3.986 3.986 0 01.15-.4 2.069 2.069 0 01.23-.37 2.142 2.142 0 01.29-.32 2.336 2.336 0 01.78-.45 2.387 2.387 0 011.4-.01l.02.01c.04.02.09.03.13.05l-.18.39a1.973 1.973 0 00-.67-.12 1.836 1.836 0 00-.57.09 1.81 1.81 0 00-1.04.9 1.862 1.862 0 00-.09 1.41 1.083 1.083 0 00.08.19c.01.02.01.03.02.05a1.16 1.16 0 00.17.28 2.484 2.484 0 001.58.94l.22.03a2.542 2.542 0 00.38.03v-.01h.01v.01c.08 0 .15.01.22.01.09 0 .18-.01.28-.02h.11z" fill="#fff"/><path d="M6.828 6.539a4.573 4.573 0 01-.39.37 2.474 2.474 0 01-.42.06 3.803 3.803 0 01-1.41-.13 2.417 2.417 0 01-.99-.62 2.06 2.06 0 01-.34-.51 1.557 1.557 0 01-.14-.63 1.678 1.678 0 01.13-.62 1.531 1.531 0 01.34-.5 1.483 1.483 0 01.5-.34 1.5 1.5 0 01.62-.13 1.467 1.467 0 01.62.13 1.392 1.392 0 01.5.34 1.655 1.655 0 01.26.32l-.39.2a1.184 1.184 0 00-.99-.55 1.157 1.157 0 00-1.15 1.15 1.57 1.57 0 001.16 1.35 3.727 3.727 0 001.19.16c.19 0 .36-.01.48-.01l.03-.01c.11 0 .27-.02.39-.03z" fill="#fff"/><path d="M4.5 8.311A3.811 3.811 0 118.311 4.5 3.815 3.815 0 014.5 8.311zM4.5.94A3.561 3.561 0 108.061 4.5 3.565 3.565 0 004.5.939z" fill="#fff"/></g></svg>