<svg xmlns="http://www.w3.org/2000/svg" viewBox="0 0 9 9"><circle cx="4.5" cy="4.5" r="4.5" fill="#0090ff"/><path d="M4.928 3.96l-.135.72 1.282.18-.09.337-1.26-.18c-.09.293-.135.608-.247.878-.113.315-.225.63-.36.922a1.215 1.215 0 01-.923.72.902.902 0 01-.72-.135.3.3 0 01-.135-.202.322.322 0 01.113-.247.406.406 0 01.224.022.999.999 0 01.18.248.321.321 0 00.495.067 1.36 1.36 0 00.383-.675c.135-.54.27-1.058.383-1.597v-.09l-1.193-.18.045-.338 1.238.18.157-.698-1.283-.202.046-.36 1.327.18c.045-.135.068-.247.113-.36a3.339 3.339 0 01.495-1.17 1.186 1.186 0 011.057-.563.698.698 0 01.54.225.191.191 0 01.068.113.377.377 0 01-.068.27.216.216 0 01-.292-.045c-.068-.067-.113-.135-.18-.202a.307.307 0 00-.495-.045 1.441 1.441 0 00-.293.427c-.158.472-.27.968-.427 1.462l1.237.18-.09.338z" fill="#fff" fill-rule="evenodd"/></svg>