<svg xmlns="http://www.w3.org/2000/svg" viewBox="0 0 9 9"><circle cx="4.5" cy="4.5" r="4.5" fill="#172852"/><path d="M3.617 2.009a2.631 2.631 0 011.667-.036A2.676 2.676 0 016.89 3.387a1.63 1.63 0 01.176.599 6.12 6.12 0 00-1.263-.513 16.281 16.281 0 01-2.078-.768c-.153-.092-.348-.185-.39-.376-.017-.165.158-.257.282-.32m-1.6 1.601a2.585 2.585 0 01.747-1.09 3.357 3.357 0 00.894 1.926 3.217 3.217 0 002.333.996 4.68 4.68 0 001.024-.134A2.64 2.64 0 112.017 3.61z" fill="#ffd83d"/><path d="M5.804 3.473a6.12 6.12 0 011.262.513L7.093 4a2.719 2.719 0 01.014.833 2.472 2.472 0 01-.528-.363 2.157 2.157 0 01-.775-.997" fill="#ff6f03"/></svg>