<svg id="Layer_1" data-name="Layer 1" xmlns="http://www.w3.org/2000/svg" viewBox="0 0 200 200"><defs><style>.cls-1{fill:none;stroke:#000;stroke-miterlimit:10;stroke-width:5px;}</style></defs><title>NEAR</title><circle class="cls-1" cx="100" cy="100" r="97.5"/><path d="M136.89,50.19,111.58,87.77a2.69,2.69,0,0,0,4,3.5l24.91-21.68a1,1,0,0,1,1.62.8v67.74a1,1,0,0,1-1.75.68L65,48.58A12.46,12.46,0,0,0,55.15,44H52.46a12.91,12.91,0,0,0-12.8,12.93v95.34a12.94,12.94,0,0,0,24,6.74L89,121.43a2.69,2.69,0,0,0-4-3.5L60,139.48a1,1,0,0,1-1.62-.81V71.07a1,1,0,0,1,1.75-.68l75.42,90.23a12.63,12.63,0,0,0,9.83,4.58h2.69A12.93,12.93,0,0,0,161,152.27V56.93a13,13,0,0,0-24.11-6.74Z"/></svg>