<svg xmlns="http://www.w3.org/2000/svg" xmlns:xlink="http://www.w3.org/1999/xlink" viewBox="0 0 9 9"><defs><linearGradient id="b" x1="2.378" y1="2.459" x2="8.101" y2="7.964" gradientUnits="userSpaceOnUse"><stop offset="0" stop-color="#231f20"/><stop offset="1" stop-color="#3c2134"/></linearGradient><linearGradient id="c" x1="2.291" y1="2.192" x2="8.514" y2="8.694" gradientUnits="userSpaceOnUse"><stop offset="0" stop-color="#231f20"/><stop offset="1" stop-color="#3d2036"/></linearGradient><linearGradient id="a" x1="3.908" y1="2.937" x2="5.573" y2="4.467" gradientUnits="userSpaceOnUse"><stop offset="0" stop-color="#28bde3"/><stop offset="1" stop-color="#23e1c4"/></linearGradient><linearGradient id="d" x1="3.869" y1="4.942" x2="5.528" y2="6.467" xlink:href="#a"/></defs><circle cx="4.5" cy="4.5" r="3.971" fill="url(#b)"/><path d="M4.5.645A3.855 3.855 0 11.645 4.5 3.859 3.859 0 014.5.645m0-.325A4.18 4.18 0 108.68 4.5 4.18 4.18 0 004.5.32z" fill="#fff"/><path d="M4.5.35A4.15 4.15 0 11.35 4.5 4.155 4.155 0 014.5.35m0-.35A4.5 4.5 0 109 4.5 4.5 4.5 0 004.5 0z" fill="url(#c)"/><path fill="url(#a)" d="M6.113 2.995v1.052H2.887V2.995H3.98V1.914h1.044v1.081h1.089z"/><path fill="url(#d)" d="M2.887 4.961h3.226v1.036H5.024v1.089H3.98V5.997H2.887V4.961z"/></svg>