<svg id="Layer_1" data-name="Layer 1" xmlns="http://www.w3.org/2000/svg" viewBox="0 0 200 200"><defs><style>.cls-1{fill:none;stroke:#ff007a;stroke-miterlimit:10;stroke-width:5px;}.cls-2,.cls-3{fill:#ff007a;}.cls-3{fill-rule:evenodd;}</style></defs><title>UNI</title><circle class="cls-1" cx="100" cy="100" r="97.5"/><path class="cls-2" d="M77.6,47.27c-1.65-.24-1.73-.32-.94-.4A26.09,26.09,0,0,1,84,47.5c5.66,1.34,10.76,4.79,16.18,10.84L101.64,60l2-.31a43.73,43.73,0,0,1,25.14,3.14,32.93,32.93,0,0,1,5.66,3.3,8,8,0,0,1,.55,2.2c.55,3.69.31,6.44-.87,8.56a2.29,2.29,0,0,0-.23,2.52,2.36,2.36,0,0,0,2.12,1.33c1.88,0,3.85-3,4.79-7.15l.39-1.65.71.79c4,4.48,7.15,10.68,7.62,15.08l.16,1.18L149,88a13.28,13.28,0,0,0-3.77-4c-2.67-1.8-5.5-2.35-13-2.75-6.76-.39-10.61-.94-14.38-2.2-6.44-2.12-9.74-4.87-17.36-15a73,73,0,0,0-7.62-9A26.68,26.68,0,0,0,77.6,47.27Z"/><path class="cls-2" d="M136.13,57.24a16.9,16.9,0,0,1,1.41-6.75,5.18,5.18,0,0,1,.71-1.34c.08,0-.08.55-.32,1.18a15,15,0,0,0-.31,6.91c.55,3.54.78,4,4.55,7.86,1.73,1.81,3.78,4.08,4.56,5l1.34,1.73-1.34-1.26a48,48,0,0,0-6.28-4.95c-.55-.31-.63-.31-1,.08s-.4.78-.4,3.06a16.78,16.78,0,0,1-1.73,8c-.62,1.18-.7,1-.15-.39.39-1,.47-1.49.47-4.87,0-6.83-.79-8.48-5.58-11.23-1.18-.71-3.22-1.73-4.4-2.28a17,17,0,0,1-2.12-1,35.23,35.23,0,0,1,6.6,2c2.75,1.1,3.22,1.18,3.53,1.1S136.05,59.21,136.13,57.24Z"/><path class="cls-2" d="M80.82,69c-3.3-4.56-5.42-11.63-4.95-16.89L76,50.41l.78.16a18.11,18.11,0,0,1,5,1.88c3.14,1.89,4.56,4.48,5.89,10.92.4,1.89,1,4.09,1.18,4.79a28.56,28.56,0,0,0,3.14,5.66c.87,1.26.32,1.88-1.65,1.73C87.42,75.23,83.41,72.48,80.82,69Z"/><path class="cls-2" d="M132.12,103.12c-15.56-6.28-21.06-11.7-21.06-20.89,0-1.34.08-2.44.08-2.44a14.55,14.55,0,0,1,1.34,1c3.14,2.52,6.68,3.62,16.5,5a68.43,68.43,0,0,1,12,2.51c9.5,3.15,15.39,9.59,16.81,18.31a31.83,31.83,0,0,1-.47,9.82c-.55,2-2.12,5.58-2.52,5.65-.08,0-.23-.39-.23-1a12.77,12.77,0,0,0-4.56-8.87C146.73,109.41,142.49,107.29,132.12,103.12Z"/><path class="cls-2" d="M121.12,105.71a18.3,18.3,0,0,0-.79-3.29l-.39-1.18.71.86a13.7,13.7,0,0,1,2.51,4.56c.55,1.49.55,2,.55,4.4a10.06,10.06,0,0,1-.55,4.24,14.16,14.16,0,0,1-3.3,5.26c-2.82,2.91-6.52,4.48-11.78,5.19-.94.08-3.61.31-6,.47-5.89.31-9.82.94-13.36,2.2-.47.16-.94.31-1,.23S90,127.08,92,126.14c2.75-1.34,5.58-2,11.79-3.14a52.19,52.19,0,0,0,7-1.42C118.53,119.15,122.38,113.1,121.12,105.71Z"/><path class="cls-2" d="M128.27,118.36q-3.06-6.72-1.41-12.72c.15-.4.31-.79.47-.79a3.53,3.53,0,0,1,1.1.55c.94.63,2.9,1.73,7.93,4.48,6.36,3.46,10,6.13,12.49,9.19a19.42,19.42,0,0,1,4.17,9.51,31.2,31.2,0,0,1-.4,9.34A23.17,23.17,0,0,1,141.23,153a10.47,10.47,0,0,1-1.65.78,6.41,6.41,0,0,1,.71-1.73,15.62,15.62,0,0,0,.71-12.17c-.87-2.67-2.67-5.89-6.29-11.31C130.39,122.29,129.37,120.64,128.27,118.36Z"/><path class="cls-2" d="M69.74,142.4A42.74,42.74,0,0,1,89.3,133a29.1,29.1,0,0,1,10.14.4c4.16,1.1,7.93,3.45,9.9,6.36s2.75,5.26,3.61,10.69c.31,2.12.71,4.32.79,4.79a10.45,10.45,0,0,0,3.45,6.2c2.44,1.81,6.68,1.89,10.84.32a5,5,0,0,1,1.34-.39c.16.15-2,1.57-3.38,2.27a11.12,11.12,0,0,1-5.66,1.34c-3.77,0-7-2-9.58-5.89a44.41,44.41,0,0,1-2.59-5.19c-2.75-6.36-4.17-8.25-7.39-10.37a9.68,9.68,0,0,0-9.19-.86,5.92,5.92,0,0,0-2,9.19A8.06,8.06,0,0,0,94,154.19a4.8,4.8,0,0,0,5.42-4.8,3.77,3.77,0,0,0-2.59-3.85c-2.52-1.1-5.27.16-5.19,2.6a2.16,2.16,0,0,0,1.49,2.12c.63.31.63.31.16.23-2.28-.47-2.83-3.3-1-5.1,2.2-2.2,6.83-1.26,8.41,1.8a8.31,8.31,0,0,1,.15,5.35,7.34,7.34,0,0,1-8.95,4.24c-2.6-.71-3.7-1.42-6.84-4.64-5.5-5.65-7.62-6.75-15.47-7.93l-1.5-.24Z"/><path class="cls-3" d="M28.42,16c18.3,22.23,46.51,56.8,47.92,58.68,1.18,1.57.71,3.07-1.26,4.17a11.94,11.94,0,0,1-4.47,1.25,5.62,5.62,0,0,1-3.77-1.65c-.71-.7-3.78-5.18-10.69-15.94-5.26-8.25-9.74-15.09-9.82-15.17-.31-.15-.31-.15,9.27,17,6,10.77,8,14.62,8,15.09,0,1-.31,1.57-1.57,3-2.12,2.36-3.06,5-3.77,10.61-.78,6.2-2.9,10.6-9,18.07-3.54,4.4-4.09,5.18-5,7a13.21,13.21,0,0,0-1.57,6.28,19.49,19.49,0,0,0,1,7.7,26,26,0,0,0,3.77,7.39c1.81,2.83,2.91,5,2.91,5.73,0,.63.15.63,3,0,6.76-1.57,12.33-4.24,15.4-7.54a7.12,7.12,0,0,0,2.36-6,6.42,6.42,0,0,0-.55-3.3c-.79-1.73-2.28-3.14-5.5-5.34-4.25-2.91-6-5.27-6.52-8.41-.4-2.67.07-4.48,2.43-9.43s3.06-7.22,3.46-12.41c.23-3.3.63-4.63,1.57-5.65s1.88-1.5,4.32-1.81c4-.55,6.6-1.57,8.64-3.54A7.38,7.38,0,0,0,81.76,76l.08-1.81-1-1.1C77.13,68.87,26,12.62,25.75,12.62,25.67,12.62,26.93,14.11,28.42,16ZM52.54,127.71a3.25,3.25,0,0,0-1-4.32c-1.34-.86-3.38-.47-3.38.71a.8.8,0,0,0,.63.78c.7.4.78.79.23,1.65s-.55,1.65.16,2.2C50.26,129.6,51.75,129.13,52.54,127.71Z"/><path class="cls-3" d="M84.35,86.39A7,7,0,0,0,80.11,91c-.31,1.26-.15,3.54.4,4.25.86,1.1,1.64,1.41,3.84,1.41,4.33,0,8-1.89,8.41-4.16.39-1.89-1.26-4.48-3.53-5.66A8,8,0,0,0,84.35,86.39Zm5,3.93a1.76,1.76,0,0,0-.78-2.67c-2.12-1.34-5.35-.24-5.35,1.8,0,1,1.65,2.12,3.23,2.12A4.31,4.31,0,0,0,89.38,90.32Z"/></svg>