<svg xmlns="http://www.w3.org/2000/svg" viewBox="0 0 9 9"><g data-name="Layer 2"><circle cx="4.5" cy="4.5" r="4.5" fill="#2775ca"/><path d="M5.737 5.156c0-.656-.393-.881-1.18-.975-.563-.075-.676-.225-.676-.487s.188-.431.563-.431a.555.555 0 01.618.393.141.141 0 00.132.094h.3a.128.128 0 00.131-.131V3.6a.937.937 0 00-.844-.769v-.45c0-.075-.056-.131-.15-.15H4.35c-.075 0-.131.057-.15.15v.432a.956.956 0 00-.919.918c0 .619.375.863 1.163.957.525.093.693.206.693.506s-.262.506-.618.506c-.488 0-.657-.206-.713-.487a.137.137 0 00-.131-.113h-.319a.128.128 0 00-.131.131v.019a1.047 1.047 0 00.994.9v.45c0 .075.056.131.15.15h.281c.075 0 .131-.056.15-.15v-.45a1.027 1.027 0 00.938-.994z" fill="#fff"/><path d="M3.544 7.125a2.806 2.806 0 010-5.269.188.188 0 00.112-.187v-.263a.142.142 0 00-.112-.15.113.113 0 00-.075.019 3.374 3.374 0 000 6.431.114.114 0 00.168-.075c.02-.018.02-.037.02-.075v-.262a.25.25 0 00-.113-.169zm1.987-5.85a.114.114 0 00-.168.075c-.02.019-.02.038-.02.075v.263a.249.249 0 00.113.187 2.806 2.806 0 010 5.269.188.188 0 00-.112.187v.263a.142.142 0 00.112.15.113.113 0 00.075-.019 3.389 3.389 0 000-6.45z" fill="#fff"/></g></svg>