<svg xmlns="http://www.w3.org/2000/svg" viewBox="0 0 9 9"><defs><linearGradient id="a" x1="-295.223" y1="44.667" x2="-286.223" y2="44.667" gradientTransform="scale(1 -1) rotate(45 -83.762 376.453)" gradientUnits="userSpaceOnUse"><stop offset="0" stop-color="#23324b"/><stop offset="1" stop-color="#415069"/></linearGradient></defs><g data-name="Layer 2"><g data-name="Layer 1"><g data-name="b959e08d-9a39-45e8-b342-c75764d662d8"><g data-name="abcd25b1-ad49-4fd6-802a-9c72bcd3fe8a"><circle cx="4.5" cy="4.5" r="4.275" fill="#f9fafb"/><path d="M1.565 1.565a4.15 4.15 0 110 5.87 4.15 4.15 0 010-5.87m-.247-.247a4.5 4.5 0 106.364 0 4.5 4.5 0 00-6.364 0z" fill="url(#a)"/><path d="M5.488 5.179a1.369 1.369 0 00-.989-.424 1.365 1.365 0 00-.988.424l-1.465 1.52-.077.08h.83l1.13-1.171a.785.785 0 011.11-.03l.03.03 1.115 1.157.014.013h.831zm.702-2.844L5.07 3.497a.787.787 0 01-.57.245h-.001a.786.786 0 01-.57-.246L2.823 2.349l-.014-.014h-.83l1.532 1.59a1.364 1.364 0 00.987.424H4.5a1.368 1.368 0 00.99-.424l1.455-1.51.077-.08z" fill="#23324b"/></g></g></g></g></svg>