<svg xmlns="http://www.w3.org/2000/svg" viewBox="0 0 8.986 8.986"><defs><linearGradient id="a" x1="0" y1="4.493" x2="8.986" y2="4.493" gradientTransform="rotate(-40.497 4.493 4.493)" gradientUnits="userSpaceOnUse"><stop offset="0" stop-color="#235fc8"/><stop offset="1" stop-color="#2c7cf6"/></linearGradient></defs><circle cx="4.493" cy="4.493" r="4.493" fill="url(#a)"/><path d="M5.077 4.41a.096.096 0 00.089.004.616.616 0 01.303-.012 1.218 1.218 0 01.985.915 1.732 1.732 0 01-.044 1.116 1.16 1.16 0 01-.712.71 1.664 1.664 0 01-1.207.011.88.88 0 01-.545-.8.354.354 0 01.366-.378.387.387 0 01.207.717c-.052.028-.028.045-.004.069a.605.605 0 00.332.142.833.833 0 00.77-.179.843.843 0 00.239-.432 1.82 1.82 0 00-.05-1.118.741.741 0 00-1.059-.38c-.1.058-.207.106-.313.16a.24.24 0 01.046-.21c.376-.499.747-1 1.12-1.5l.066-.09c-.019-.026-.043-.015-.064-.015-.526-.001-1.053 0-1.58-.002-.063 0-.078.018-.078.08.003.549.002 1.098.001 1.647a.718.718 0 00.032.236.364.364 0 00.534.237.85.85 0 00.339-.298c.03-.04.055-.079.114-.06a.13.13 0 01.091.116.264.264 0 01-.033.159.763.763 0 01-.74.45 2.504 2.504 0 01-.35-.035.712.712 0 01-.599-.74q-.003-.85.002-1.7c0-.079-.023-.093-.096-.092-.242.005-.484 0-.726.003-.048 0-.067-.013-.064-.063a1.47 1.47 0 000-.194c-.004-.055.02-.066.07-.066.246.002.493-.001.74.003.065 0 .08-.02.078-.08a18.525 18.525 0 010-.592.135.135 0 00-.048-.119c-.03-.024-.05-.057-.081-.078a.196.196 0 01-.073-.198c.002-.032.013-.043.045-.043.174.002.35-.005.524.004a.578.578 0 01.227.107c.026.014.014.046.014.07 0 .282.003.564-.001.846-.001.069.02.082.084.082.709-.005 1.418-.007 2.127-.011a.161.161 0 01.136.057 1.354 1.354 0 00.132.133c.035.03.033.05 0 .081-.162.16-.321.322-.481.483l-.81.811a.352.352 0 01-.055.036z" fill="#fefefe"/></svg>