<svg xmlns="http://www.w3.org/2000/svg" viewBox="0 0 9.002 9.002"><defs><linearGradient id="a" x1=".884" y1="2.358" x2="8.629" y2="6.947" gradientTransform="rotate(-58.765 4.501 4.501)" gradientUnits="userSpaceOnUse"><stop offset="0" stop-color="#34a5a5"/><stop offset=".077" stop-color="#2b9a9f"/><stop offset=".274" stop-color="#198293"/><stop offset=".483" stop-color="#0c718b"/><stop offset=".713" stop-color="#046786"/><stop offset="1" stop-color="#026484"/></linearGradient></defs><circle cx="4.501" cy="4.501" r="4.455" fill="#fff"/><path d="M3.472.48A4.15 4.15 0 11.48 5.53 4.155 4.155 0 013.47.48M3.386.143a4.5 4.5 0 105.476 3.243A4.5 4.5 0 003.385.142z" fill="url(#a)"/><path data-name="path0 fill" d="M6.438 4.012l-.811.362L3.473 5.47l2.154 1.036V4.794l.811-.366v2.529l-.811.362-3.172-1.518v-.806l2.196-1.077-2.196-1.055v-.819l.825-.362 3.158 1.52v.81z" fill="#49c1bf"/><path data-name="path1 fill" d="M2.455 2.044l3.171 1.52.812-.362-3.158-1.52z" fill="#077a8f"/><path data-name="path2 fill" d="M5.627 3.561l.811-.362v.81l-.811.362v-.81z" fill="#298e97"/><path data-name="path3 fill" d="M2.455 2.045v.819l2.196 1.054-2.196 1.077v.807L5.626 7.32v-.812L3.474 5.47l2.154-1.096v-.81z" fill="#49c1bf"/><path data-name="path4 fill" d="M5.627 7.314l.811-.362V4.423l-.811.366v2.525z" fill="#298e97"/></svg>