<svg xmlns="http://www.w3.org/2000/svg" viewBox="0 0 9 9"><defs><linearGradient id="a" x1="3.189" y1="5.553" x2="7.143" y2="2.378" gradientUnits="userSpaceOnUse"><stop offset="0" stop-color="#3c9bb4"/><stop offset=".274" stop-color="#5887b3"/><stop offset=".863" stop-color="#a056b0"/><stop offset=".981" stop-color="#af4baf"/></linearGradient></defs><g data-name="Layer 2"><circle cx="4.5" cy="4.5" r="4.5" fill="url(#a)"/><path d="M4.5.645A3.855 3.855 0 11.645 4.5 3.859 3.859 0 014.5.645m0-.325A4.18 4.18 0 108.68 4.5 4.18 4.18 0 004.5.32z" fill="#fff"/><path d="M6.399 5.958a1.97 1.97 0 00-.092-.225q-.071-.18-.149-.36l-.007-.02-.13-.315c-.047-.113-.09-.227-.142-.338a1.034 1.034 0 00-.048-.124c-.031-.077-.064-.153-.096-.23l-.034-.086c-.03-.07-.055-.143-.09-.21a.061.061 0 00-.01-.03q-.04-.1-.082-.199l-.12-.29-.143-.349-.109-.262a3.953 3.953 0 00-.096-.229c-.024-.074-.057-.145-.087-.216a.705.705 0 00-.084-.178.281.281 0 00-.103-.102.352.352 0 00-.148-.062 1.046 1.046 0 00-.23-.002.167.167 0 00-.079.018.257.257 0 00-.092.045.325.325 0 00-.128.144c-.046.092-.082.19-.12.285l-.115.28a9.75 9.75 0 00-.143.348l-.122.296-.108.262c-.012.03-.027.058-.037.088-.01.037-.03.056-.07.05h-.023l-.395.002-.017.003a.154.154 0 00-.084.012.199.199 0 00-.092.057.26.26 0 000 .377.207.207 0 00.091.057.262.262 0 00.132.017h.09c.04.01.08 0 .121.008l-.072.18c-.032.07-.06.14-.087.212a4.725 4.725 0 00-.103.25c-.03.066-.056.133-.082.2l-.088.212a4.24 4.24 0 00-.086.211c-.022.053-.045.106-.066.16a.388.388 0 00-.036.12.269.269 0 00.1.245.16.16 0 00.08.04.039.039 0 00.028.006.227.227 0 00.173-.03.205.205 0 00.097-.083.829.829 0 00.091-.2c.043-.098.084-.196.12-.297.043-.097.083-.197.12-.297a5.87 5.87 0 00.12-.297 4.72 4.72 0 00.109-.269 6.16 6.16 0 00.12-.297.455.455 0 00.021-.049.03.03 0 01.036-.023l.08-.001h.263l.097-.001a.218.218 0 00.125-.035.264.264 0 00.076-.394.158.158 0 00-.076-.061.171.171 0 00-.125-.035c-.073-.007-.146-.003-.22-.004l-.01.004c-.03-.003-.006-.022-.01-.033a6.91 6.91 0 00.114-.29l.017-.038.108-.277c.036-.079.068-.159.097-.24a3.15 3.15 0 00.092-.227l.06-.14c.004-.007.003-.02.018-.02l.122.3.14.35.095.238c.027.069.053.139.084.206.025.072.053.142.084.212.03.082.063.164.098.244.036.095.073.19.114.282q.067.181.143.358.055.15.12.298.038.11.086.216c.04.11.084.218.13.325q.067.176.143.349a.735.735 0 00.05.122.23.23 0 00.093.094.242.242 0 00.142.044.22.22 0 00.149-.043.278.278 0 00.097-.319zm-2.375-2.01z" fill="#fff"/></g></svg>