<svg xmlns="http://www.w3.org/2000/svg" viewBox="0 0 9 9"><g data-name="Layer 2"><circle cx="4.5" cy="4.5" r="4.5" fill="#1e5fb6"/><circle cx="3.425" cy="4.508" r=".427" fill="#fff"/><circle cx="3.961" cy="5.509" r=".427" fill="#fff"/><circle cx="5.04" cy="5.509" r=".427" fill="#fff"/><circle cx="5.575" cy="4.508" r=".427" fill="#fff"/><circle cx="5.036" cy="3.493" r=".427" fill="#fff"/><circle cx="3.961" cy="3.491" r=".427" fill="#fff"/><circle cx="2.903" cy="3.507" r=".25" fill="#fff"/><circle cx="4.5" cy="2.507" r=".25" fill="#fff"/><circle cx="6.097" cy="3.5" r=".25" fill="#fff"/><circle cx="6.097" cy="5.493" r=".25" fill="#fff"/><circle cx="4.485" cy="6.496" r=".25" fill="#fff"/><circle cx="2.903" cy="5.493" r=".25" fill="#fff"/><circle cx="2.11" cy="4.506" r=".213" fill="#fff"/><circle cx="3.31" cy="6.745" r=".213" fill="#fff"/><circle cx="5.7" cy="6.737" r=".213" fill="#fff"/><circle cx="7.051" cy="6.086" r=".17" fill="#fff"/><circle cx="7.045" cy="2.899" r=".17" fill="#fff"/><circle cx="4.494" cy="1.316" r=".17" fill="#fff"/><circle cx="1.949" cy="2.914" r=".17" fill="#fff"/><circle cx="1.955" cy="6.098" r=".17" fill="#fff"/><circle cx="4.487" cy="7.684" r=".17" fill="#fff"/><circle cx="6.89" cy="4.492" r=".213" fill="#fff"/><circle cx="5.69" cy="2.263" r=".213" fill="#fff"/><circle cx="3.301" cy="2.263" r=".213" fill="#fff"/></g></svg>