<svg xmlns="http://www.w3.org/2000/svg" viewBox="0 0 9 9"><g data-name="Layer 2"><path d="M1.952 6.349c0 .01 0 .01.01.02-.01-.01-.02-.01-.02-.02z" fill="#324664"/><circle cx="4.5" cy="4.5" r="4.5" fill="#4870b4"/><g data-name="surface1" fill="#fff"><path d="M7.25 4.098a1.722 1.722 0 00-1.721-1.722H4.168l.927.805h.433a.917.917 0 010 1.833h-1.36l1.854 1.61H7.25l-1.073-.931A1.722 1.722 0 007.25 4.098z"/><path d="M3.472 5.82a.917.917 0 110-1.834h1.36l-1.854-1.61H1.75l1.073.931a1.722 1.722 0 00.648 3.317h1.361l-.927-.805z"/></g></g></svg>