<svg xmlns="http://www.w3.org/2000/svg" viewBox="0 0 9 9"><g data-name="Layer 2"><circle cx="4.5" cy="4.5" r="4.5" fill="#0063c6"/><path d="M6.7 4.897a3.528 3.528 0 01-2.36 1.54l-.02.01-.16.42a.06.06 0 01-.06.03h-.47l.14-.36-.07.01q-.134.015-.24.03h-.03l-.11.29a.06.06 0 01-.06.03h-.47l.12-.3h-.07c-.26 0-.45-.02-.54-.02l1.14-2.81h.95a.086.086 0 01.06.03.085.085 0 010 .07l-.75 1.95h.07a2.207 2.207 0 002.19-1.82.584.584 0 00-.37-.67.853.853 0 00-.31-.06H2.29l.37-.65a.17.17 0 01.14-.09h1.67l.17-.43.5.01v.01l-.16.41h.33l.17-.43.5.01v.01l-.16.42.06.01a1.45 1.45 0 011.19.63c.2.41.08.99-.37 1.72z" fill="#fff"/></g></svg>