<svg xmlns="http://www.w3.org/2000/svg" viewBox="0 0 9 9"><defs><linearGradient id="a" x1=".861" y1="2.366" x2="8.605" y2="6.955" gradientTransform="rotate(-135.594 4.487 4.5)" gradientUnits="userSpaceOnUse"><stop offset="0" stop-color="#e5007a"/><stop offset=".021" stop-color="#da0074"/><stop offset=".122" stop-color="#a70059"/><stop offset=".229" stop-color="#7a0041"/><stop offset=".338" stop-color="#55002d"/><stop offset=".451" stop-color="#36001d"/><stop offset=".568" stop-color="#1e0010"/><stop offset=".693" stop-color="#0d0007"/><stop offset=".83" stop-color="#030002"/><stop offset="1"/></linearGradient></defs><circle cx="4.5" cy="4.5" r="4.5" fill="#fff"/><path d="M7.404 1.535a4.15 4.15 0 11-5.869.061 4.155 4.155 0 015.869-.06m.245-.25a4.5 4.5 0 10.066 6.363 4.5 4.5 0 00-.066-6.364z" fill="url(#a)"/><path d="M4.578 1.663a2.057 2.057 0 011.592.802 2.139 2.139 0 01-.165 2.893 2.106 2.106 0 01-1.382.613 1.781 1.781 0 00-.389.045.761.761 0 00-.559.64 8.69 8.69 0 01-.084.389.296.296 0 01-.283.23.3.3 0 01-.291-.213.324.324 0 01-.004-.167l.673-3.14a.298.298 0 11.583.12c-.093.442-.19.882-.284 1.323l-.04.194c-.008.031 0 .05.035.042.244-.053.493-.05.738-.081a1.55 1.55 0 10-1.691-1.036.302.302 0 11-.575.185 2.157 2.157 0 011.008-2.57 2.273 2.273 0 011.118-.269z"/><path d="M4.218 6.975a.361.361 0 11.722-.002.359.359 0 01-.365.364.354.354 0 01-.357-.362z" fill="#e5007a"/></svg>