<svg id="Layer_1" data-name="Layer 1" xmlns="http://www.w3.org/2000/svg" viewBox="0 0 193 193"><defs><style>.cls-1{fill:#007f88;}.cls-2{fill:none;stroke:#007f88;stroke-miterlimit:10;stroke-width:8px;}</style></defs><title>HOT</title><g id="Layer_1-2" data-name="Layer 1-2"><path class="cls-1" d="M45.87,58.83c-1.79.14-3.16.42-3.09.63.72,1.7,5.13,11.71,5.19,11.77a15.35,15.35,0,0,0,2.3.18,32.88,32.88,0,0,1,14.16,3.51,29.36,29.36,0,0,1,8.25,5.88,28.55,28.55,0,0,1,7.6,12.92c.16.58.29,1.1.29,1.18s-.82.13-4.42.13c-2.43,0-4.52,0-4.65.1s-.7,1.15-2.79,6c-1.41,3.23-2.57,5.94-2.59,6-.07.26.77.5,2.88.81.44.07,3,.14,6.1.18l5.34.06-.32,1.11C76.52,121.47,65.34,130,51.65,131c-.77.05-1.79.1-2.26.1h-.85L45.9,137.2c-2.26,5.18-2.61,6.07-2.46,6.12.68.25,2.21.34,5.75.34a44.35,44.35,0,0,0,10.46-1c15.24-3.13,27.9-12.83,33.63-25.78a42.6,42.6,0,0,0,2.64-8.32l.07-.49h11.43l0,.22a39.32,39.32,0,0,0,3.27,10c4.66,9.69,13.39,17.61,24.2,22A52,52,0,0,0,155.59,144c3-.09,5.32-.42,5.19-.73s-5.1-11.76-5.13-11.79-1.07-.07-2.33-.12a36.41,36.41,0,0,1-9.18-1.41,35.36,35.36,0,0,1-12.68-6.67,29.74,29.74,0,0,1-9.28-13.44,14.27,14.27,0,0,1-.42-1.38l-.07-.32,4.31,0c2.36,0,4.37-.07,4.45-.11s5.28-11.75,5.28-12a6.87,6.87,0,0,0-2.47-.72,48,48,0,0,0-6.34-.22l-5.3,0,.2-.71c2.94-10.4,12-18.66,23.57-21.58a38.59,38.59,0,0,1,8.29-1.11c1.94-.08,2.18-.11,2.3-.27s1.26-2.78,2.63-5.92A58.43,58.43,0,0,0,161,59.61a15.12,15.12,0,0,0-2.74-.48,67.26,67.26,0,0,0-8.38,0,49.66,49.66,0,0,0-30.53,13.64A40.86,40.86,0,0,0,108.92,89.1a41.53,41.53,0,0,0-1.4,5.2l-.12.73H96.16l0-.23c0-.12-.14-.69-.26-1.27a41.28,41.28,0,0,0-13-22.17A49.79,49.79,0,0,0,55.63,59.14,56.28,56.28,0,0,0,45.87,58.83Z" transform="translate(-4 -3)"/></g><circle class="cls-2" cx="96.5" cy="96.5" r="92.5"/></svg>