<svg xmlns="http://www.w3.org/2000/svg" viewBox="0 0 9 9"><g data-name="Layer 2"><circle cx="4.5" cy="4.5" r="4.5" fill="#339fb9"/><path d="M2.424 2.513v1.53a2.637 2.637 0 00.552 1.945 1.97 1.97 0 001.415.656h.03a1.862 1.862 0 001.301-.541zm4.13 2.508l.01-.084a2.463 2.463 0 00-.561-1.935 1.94 1.94 0 00-1.425-.645 1.824 1.824 0 00-1.311.541l3.308 3.59z" fill="#fff"/><path d="M4.5 8.425A3.925 3.925 0 118.425 4.5 3.93 3.93 0 014.5 8.425zm0-7.6A3.675 3.675 0 108.175 4.5 3.68 3.68 0 004.5.825z" fill="#fff"/></g></svg>