<svg xmlns="http://www.w3.org/2000/svg" viewBox="0 0 9 9"><defs><linearGradient id="a" x1="-4.881" y1="809.572" x2="-10.155" y2="800.579" gradientTransform="scale(1 -1) rotate(89.192 408.912 406.341)" gradientUnits="userSpaceOnUse"><stop offset="0" stop-color="#ff5000"/><stop offset=".081" stop-color="#eb4c13"/><stop offset=".299" stop-color="#bc413f"/><stop offset=".507" stop-color="#973863"/><stop offset=".699" stop-color="#7c327c"/><stop offset=".869" stop-color="#6c2e8c"/><stop offset="1" stop-color="#662d91"/></linearGradient></defs><circle cx="4.5" cy="4.5" r="4.493" fill="#fff"/><path d="M8.65 4.559A4.15 4.15 0 114.559.35 4.155 4.155 0 018.65 4.559m.35.005A4.5 4.5 0 104.436 9 4.5 4.5 0 009 4.564z" fill="url(#a)"/><path fill="#662d91" d="M7.177 6.139l-5.354.006 1.585-.902h2.204l1.565.896z"/><path fill="#9e1f63" d="M7.177 6.139l-1.565-.896-1.099-1.828.001-1.872 2.663 4.596z"/><path fill="#ff5000" d="M4.514 1.543l-.001 1.872-.006-.009-1.099 1.837-1.585.902 2.691-4.602z"/></svg>