<svg xmlns="http://www.w3.org/2000/svg" viewBox="0 0 9 9"><g data-name="Layer 2"><circle cx="4.5" cy="4.5" r="4.5" fill="#f5f7fb"/><path d="M4.5.75A3.75 3.75 0 11.75 4.5 3.754 3.754 0 014.5.75m0-.75A4.5 4.5 0 109 4.5 4.5 4.5 0 004.5 0z" fill="#f4901e"/><path d="M4.5 1.472a3.06 3.06 0 11-3.06 3.06 3.063 3.063 0 013.06-3.06m0-.34a3.4 3.4 0 103.4 3.4 3.4 3.4 0 00-3.4-3.4z" fill="#142d64"/><path d="M6.105 4.434a1.148 1.148 0 00-.392-.17 1.072 1.072 0 00.274-.226.858.858 0 00.127-.38.792.792 0 00-.275-.69 1.5 1.5 0 00-.846-.26V1.94h-.474v.76h-.362v-.76h-.474v.76h-.932v.492h.274a.391.391 0 01.264.072c.056.063.066.096.066.219v1.962a.192.192 0 01-.048.141c-.04.038-.08.047-.175.047h-.284l-.097.57h.932v.757h.474v-.758h.362v.758h.474v-.77c.122-.007.237-.016.303-.025a1.576 1.576 0 00.727-.253.951.951 0 00.357-.827.758.758 0 00-.275-.651zM4.157 3.235s.151-.013.3-.01a1.51 1.51 0 01.474.066.41.41 0 01.314.379.371.371 0 01-.204.36 1.154 1.154 0 01-.49.12c-.172.007-.394 0-.394 0zM5.22 5.502a1.507 1.507 0 01-.537.128c-.21.016-.525.01-.525.01V4.621s.302-.015.537 0a1.515 1.515 0 01.52.12.42.42 0 01.005.76z" fill="#142d64" data-name="surface1"/></g></svg>