<svg xmlns="http://www.w3.org/2000/svg" viewBox="0 0 8.986 8.986"><circle cx="4.493" cy="4.493" r="4.493" fill="#ad0728"/><path d="M6.662 2.143a.34.34 0 00-.314.213h-3.71a.34.34 0 10-.314.468l.014-.003.785 1.716a.336.336 0 00-.087.222.34.34 0 00.34.34h.005l.866 1.891a.34.34 0 10.493 0l.866-1.891h.004a.34.34 0 00.34-.34.336.336 0 00-.088-.222l.786-1.715.014.002a.34.34 0 100-.68zm-.409.468L4.493 3.83l-1.76-1.219zM4.27 3.986l-.711.492a.33.33 0 00-.181-.06c-.009 0-.016.005-.024.005l-.719-1.57zm.238 2.898l-.014-.003-.014.003L3.617 5a.34.34 0 00.1-.241.327.327 0 00-.014-.07l.79-.547.79.547a.327.327 0 00-.014.07A.34.34 0 005.37 5zm1.127-2.46c-.009-.001-.016-.006-.025-.006a.33.33 0 00-.18.06l-.711-.492 1.634-1.132z" fill="#fff"/><path d="M4.493 7.58a.356.356 0 01-.267-.593l-.856-1.87a.358.358 0 01-.35-.358.346.346 0 01.083-.225l-.775-1.693h-.004a.358.358 0 11.326-.503h3.686a.358.358 0 11.326.504h-.004l-.775 1.692a.348.348 0 01.084.225.359.359 0 01-.35.358l-.857 1.87a.356.356 0 01-.267.593zM2.35 2.803l.005.01.79 1.727-.007.009a.313.313 0 00-.083.21.323.323 0 00.323.323h.011l.009.01.87 1.901-.008.008a.323.323 0 10.468 0l-.008-.008.005-.01.87-1.902.02.002a.324.324 0 00.319-.324.319.319 0 00-.083-.21l-.008-.009.005-.01.79-1.727h.012l.012.003a.323.323 0 10-.298-.443l-.004.01H2.627l-.004-.01a.323.323 0 10-.299.444l.012-.003zM4.519 6.9H4.49l-.012.002h-.011l-.005-.01-.867-1.894.008-.009a.323.323 0 00.096-.23.174.174 0 00-.008-.043l-.006-.023-.002-.011.01-.007.8-.555.01.008.8.554-.004.01-.006.024a.17.17 0 00-.008.044.322.322 0 00.096.23l.008.007-.004.012zm-.881-1.897l.851 1.86h.008l.852-1.86a.357.357 0 01-.098-.245.202.202 0 01.01-.053l.003-.01-.77-.534-.77.534.002.01a.202.202 0 01.01.053.357.357 0 01-.098.245zm1.79-.505l-.01-.007-.731-.506.021-.014 1.687-1.169-.026.058-.724 1.58h-.012a.155.155 0 01-.024-.005.311.311 0 00-.171.057zm-.68-.513l.68.47a.34.34 0 01.181-.055l.015.002.686-1.498zm-1.19.513l-.01-.006a.311.311 0 00-.17-.057c-.006 0-.014.004-.024.005h-.012l-.005-.011-.746-1.627.053.037 1.655 1.146L4.28 4zM3.377 4.4a.34.34 0 01.18.056l.68-.471-1.56-1.081.685 1.498zm1.116-.55l-.01-.006-1.806-1.251H6.31l-.046.031zM2.79 2.63l1.704 1.18 1.704-1.18z" fill="#fff"/></svg>