<svg xmlns="http://www.w3.org/2000/svg" xmlns:xlink="http://www.w3.org/1999/xlink" viewBox="0 0 23.98 24.01"><defs><style>.cls-1,.cls-2{fill:none;}.cls-1{clip-rule:evenodd;}.cls-3{clip-path:url(#clip-path);}.cls-4{clip-path:url(#clip-path-2);}.cls-5{fill:#140442;}.cls-6{clip-path:url(#clip-path-3);}.cls-7{clip-path:url(#clip-path-5);}.cls-8{clip-path:url(#clip-path-7);}.cls-9{clip-path:url(#clip-path-9);}.cls-10{clip-path:url(#clip-path-11);}.cls-11{clip-path:url(#clip-path-13);}</style><clipPath id="clip-path" transform="translate(2.78 2.78)"><path class="cls-1" d="M3.17,15.26a.33.33,0,0,1-.1-.24.34.34,0,1,1,.68,0,.33.33,0,0,1-.1.24.34.34,0,0,1-.48,0m1-1A.32.32,0,0,1,4,14.05a.34.34,0,0,1,.11-.24.34.34,0,0,1,.48,0,.33.33,0,0,1,.1.24.31.31,0,0,1-.1.24.34.34,0,0,1-.24.1.31.31,0,0,1-.24-.1m1-1a.35.35,0,0,1-.1-.25.34.34,0,0,1,.68,0,.35.35,0,0,1-.1.25.34.34,0,0,1-.24.09.38.38,0,0,1-.24-.09m1-1a.33.33,0,0,1-.1-.24.31.31,0,0,1,.1-.24.33.33,0,0,1,.48,0,.31.31,0,0,1,.1.24.34.34,0,0,1-.34.34.31.31,0,0,1-.24-.1m1-1a.35.35,0,0,1-.1-.24.37.37,0,0,1,.1-.24.36.36,0,0,1,.49,0,.37.37,0,0,1,.1.24.35.35,0,0,1-.1.24.36.36,0,0,1-.25.11A.35.35,0,0,1,7,11.39m1-1a.34.34,0,0,1-.1-.24.34.34,0,1,1,.68,0,.34.34,0,0,1-.1.24.35.35,0,0,1-.24.1.37.37,0,0,1-.24-.1m1-1a.34.34,0,1,1,.48,0,.34.34,0,0,1-.24.1A.31.31,0,0,1,9,9.46m.86-1.21a.34.34,0,0,1,.68,0,.34.34,0,0,1-.34.35.39.39,0,0,1-.24-.1A.35.35,0,0,1,9.83,8.25Zm1.07-.72a.34.34,0,0,1,0-.48.33.33,0,0,1,.48,0,.34.34,0,1,1-.48.48m1-1a.35.35,0,0,1-.1-.24.39.39,0,0,1,.1-.24.36.36,0,0,1,.49,0,.39.39,0,0,1,.1.24.34.34,0,0,1-.35.34.34.34,0,0,1-.24-.1m1-1a.34.34,0,0,1-.1-.24.31.31,0,0,1,.1-.24.33.33,0,0,1,.48,0,.31.31,0,0,1,.1.24.34.34,0,0,1-.1.24.34.34,0,0,1-.48,0m1-1a.34.34,0,0,1-.09-.24.34.34,0,0,1,.58-.24.37.37,0,0,1,.1.24.35.35,0,0,1-.1.24.33.33,0,0,1-.24.1.35.35,0,0,1-.25-.1m1-1a.39.39,0,0,1-.1-.25.39.39,0,0,1,.1-.24.34.34,0,0,1,.48,0,.35.35,0,0,1,.11.24.36.36,0,0,1-.11.25.35.35,0,0,1-.24.1.37.37,0,0,1-.24-.1"/></clipPath><clipPath id="clip-path-2" transform="translate(2.78 2.78)"><rect class="cls-2" x="-40.69" y="-6.92" width="100.19" height="25.6"/></clipPath><clipPath id="clip-path-3" transform="translate(2.78 2.78)"><path class="cls-1" d="M15.25,15.26a.37.37,0,0,0,.1-.24.39.39,0,0,0-.1-.25.36.36,0,0,0-.49,0,.39.39,0,0,0-.1.25.37.37,0,0,0,.1.24.35.35,0,0,0,.49,0m-1-1a.31.31,0,0,0,.1-.24.33.33,0,0,0-.1-.24.34.34,0,0,0-.48,0,.33.33,0,0,0-.1.24.34.34,0,0,0,.34.34.33.33,0,0,0,.24-.1m-1-1a.36.36,0,0,0,.11-.25.35.35,0,0,0-.11-.24.34.34,0,0,0-.48,0,.35.35,0,0,0,0,.49.38.38,0,0,0,.24.09.34.34,0,0,0,.24-.09m-1-1a.37.37,0,0,0,.1-.24.35.35,0,0,0-.1-.24.34.34,0,0,0-.58.24.36.36,0,0,0,.09.24.35.35,0,0,0,.25.1.33.33,0,0,0,.24-.1m-1-1a.31.31,0,0,0,.1-.24.33.33,0,0,0-.1-.24.34.34,0,0,0-.48,0,.33.33,0,0,0-.1.24.31.31,0,0,0,.1.24.35.35,0,0,0,.24.11.34.34,0,0,0,.24-.11m-1-1a.35.35,0,0,0,0-.49.34.34,0,0,0-.48,0,.36.36,0,0,0-.11.25.35.35,0,0,0,.11.24.34.34,0,0,0,.23.1.39.39,0,0,0,.25-.1m-1-1a.34.34,0,1,0-.48,0,.34.34,0,0,0,.48,0M8.59,8.25A.35.35,0,0,0,8.48,8,.34.34,0,0,0,8,8.5a.39.39,0,0,0,.24.1.35.35,0,0,0,.24-.1A.36.36,0,0,0,8.59,8.25ZM7.52,7.53a.34.34,0,0,0,0-.48.33.33,0,0,0-.48,0,.34.34,0,0,0,.24.58.34.34,0,0,0,.24-.1m-1-1a.31.31,0,0,0,.1-.24.34.34,0,0,0-.68,0,.31.31,0,0,0,.1.24.33.33,0,0,0,.24.1.31.31,0,0,0,.24-.1m-1-1a.39.39,0,0,0,.1-.24.35.35,0,0,0-.1-.24.34.34,0,0,0-.49,0,.35.35,0,0,0-.1.24.39.39,0,0,0,.1.24.35.35,0,0,0,.25.1.34.34,0,0,0,.24-.1m-1-1a.31.31,0,0,0,.1-.24.33.33,0,0,0-.1-.24.34.34,0,0,0-.48,0,.33.33,0,0,0-.1.24.34.34,0,0,0,.34.34.33.33,0,0,0,.24-.1m-1-1a.35.35,0,0,0,.1-.25.34.34,0,0,0-.58-.24.39.39,0,0,0-.1.24.34.34,0,0,0,.34.35.35.35,0,0,0,.24-.1"/></clipPath><clipPath id="clip-path-5" transform="translate(2.78 2.78)"><path class="cls-1" d="M14.49,6,16.57,3.9a8.47,8.47,0,0,1,1.85,5.35,8.65,8.65,0,0,1-1.86,5.29l-2.07-2.08a5.85,5.85,0,0,0,1-3.19A5.75,5.75,0,0,0,14.49,6Zm-2,8.55,2.06,2.07a8.52,8.52,0,0,1-5.29,1.85,8.37,8.37,0,0,1-5.35-1.85l2.07-2.06a5.63,5.63,0,0,0,3.27,1A5.74,5.74,0,0,0,12.45,14.52ZM3.91,12.46,1.83,14.53a8.63,8.63,0,0,1,0-10.63L3.9,6a5.84,5.84,0,0,0,0,6.49ZM6,3.93,3.88,1.85a8.54,8.54,0,0,1,10.63,0L12.43,3.94A5.92,5.92,0,0,0,6,3.93Z"/></clipPath><clipPath id="clip-path-7" transform="translate(2.78 2.78)"><path class="cls-1" d="M16.64,15.19a1.44,1.44,0,1,1-1.44,1.44,1.44,1.44,0,0,1,1.44-1.44"/></clipPath><clipPath id="clip-path-9" transform="translate(2.78 2.78)"><path class="cls-1" d="M1.79,15.19A1.44,1.44,0,1,1,.35,16.63a1.45,1.45,0,0,1,1.44-1.44"/></clipPath><clipPath id="clip-path-11" transform="translate(2.78 2.78)"><path class="cls-1" d="M16.66.32a1.44,1.44,0,1,1-1.44,1.44A1.45,1.45,0,0,1,16.66.32"/></clipPath><clipPath id="clip-path-13" transform="translate(2.78 2.78)"><path class="cls-1" d="M1.75.29A1.45,1.45,0,1,1,.31,1.74,1.44,1.44,0,0,1,1.75.29"/></clipPath></defs><g id="Layer_2" data-name="Layer 2"><g id="Layer_1-2" data-name="Layer 1"><g class="cls-3"><g class="cls-4"><rect class="cls-5" x="3.07" y="3.08" width="17.84" height="17.84"/></g></g><g class="cls-6"><g class="cls-4"><rect class="cls-5" x="3.07" y="3.08" width="17.84" height="17.84"/></g></g><g class="cls-7"><g class="cls-4"><rect class="cls-5" width="23.98" height="24.01"/></g></g><g class="cls-8"><g class="cls-4"><rect class="cls-5" x="15.2" y="15.19" width="8.45" height="8.45"/></g></g><g class="cls-9"><g class="cls-4"><rect class="cls-5" x="0.35" y="15.19" width="8.45" height="8.45"/></g></g><g class="cls-10"><g class="cls-4"><rect class="cls-5" x="15.22" y="0.32" width="8.45" height="8.45"/></g></g><g class="cls-11"><g class="cls-4"><rect class="cls-5" x="0.31" y="0.29" width="8.45" height="8.45"/></g></g></g></g></svg>