<svg xmlns="http://www.w3.org/2000/svg" xmlns:xlink="http://www.w3.org/1999/xlink" viewBox="0 0 9 9"><defs><radialGradient id="b" cx="5.229" cy="5.277" r="5.753" gradientTransform="matrix(-.45092 -.89256 1.06108 -.53606 1.988 12.772)" gradientUnits="userSpaceOnUse"><stop offset="0" stop-color="#8741c3"/><stop offset=".321" stop-color="#8843c4"/><stop offset=".436" stop-color="#8c4ac6"/><stop offset=".519" stop-color="#9455c9"/><stop offset=".586" stop-color="#9f66cf"/><stop offset=".643" stop-color="#ad7cd6"/><stop offset=".693" stop-color="#be98de"/><stop offset=".739" stop-color="#d2b8e9"/><stop offset=".78" stop-color="#e9dcf4"/><stop offset=".812" stop-color="#fff"/></radialGradient><radialGradient id="c" cx="5.042" cy="4.351" r="3.935" gradientTransform="translate(-.144 -.14) scale(1.0447)" gradientUnits="userSpaceOnUse"><stop offset=".086" stop-color="#8741c3"/><stop offset=".341" stop-color="#8377d5" stop-opacity=".926"/><stop offset=".624" stop-color="#7eaae5" stop-opacity=".858"/><stop offset=".853" stop-color="#7ccaef" stop-opacity=".816"/><stop offset="1" stop-color="#7bd5f3" stop-opacity=".8"/></radialGradient><radialGradient id="a" cx="2.684" cy="1.659" r="1.497" gradientUnits="userSpaceOnUse"><stop offset=".086" stop-color="#fff"/><stop offset=".14" stop-color="#fff" stop-opacity=".959"/><stop offset=".423" stop-color="#fff" stop-opacity=".762"/><stop offset=".671" stop-color="#fff" stop-opacity=".62"/><stop offset=".872" stop-color="#fff" stop-opacity=".532"/><stop offset="1" stop-color="#fff" stop-opacity=".5"/></radialGradient><radialGradient id="d" cx="2.846" cy="1.803" r="1.848" xlink:href="#a"/><radialGradient id="e" cx="4.049" cy="3.443" r="3.917" gradientUnits="userSpaceOnUse"><stop offset="0" stop-color="#74f8fe"/><stop offset=".421" stop-color="#76f8fe"/><stop offset=".573" stop-color="#7df8fe"/><stop offset=".681" stop-color="#88f9fe"/><stop offset=".768" stop-color="#99fafe"/><stop offset=".843" stop-color="#affbfe"/><stop offset=".909" stop-color="#cbfcff"/><stop offset=".968" stop-color="#eafeff"/><stop offset="1" stop-color="#fff"/></radialGradient></defs><circle cx="4.5" cy="4.5" r="4.5" fill="#8741c3"/><circle cx="4.5" cy="4.5" r="3.808" fill="url(#b)"/><circle cx="5.502" cy="5.419" r="2.278" opacity=".6" fill="url(#c)"/><circle cx="2.822" cy="2.028" r=".83" fill="url(#a)"/><circle cx="3.017" cy="2.259" r="1.024" opacity=".5" fill="url(#d)"/><path d="M7.217 4.501a4.749 4.749 0 00-.045-.628H3.074c.003-.01.004-.018.008-.028a.477.477 0 01.057-.114c0-.007 0-.013.006-.013a1.175 1.175 0 01.076-.128 1.75 1.75 0 01.195-.256l.003-.002h3.65a4.246 4.246 0 00-.51-1.208H5.61l.005-.002H3.234l-.033.022a.616.616 0 00-.089.045 2.542 2.542 0 00-.472.377c-.011.014-.028.027-.04.04a2.801 2.801 0 00-.805 1.63 4.174 4.174 0 00-.012.269 2.71 2.71 0 00.052.525c.012.06.029.128.046.188a2.965 2.965 0 00.667 1.132l.035.04a1.846 1.846 0 00.265.236 1.272 1.272 0 00.144.114c.028.027.057.047.091.074a.089.089 0 01.03.014l.072.03a.25.25 0 00.03.017h.043l.005.003H6.56a4.368 4.368 0 00.51-1.208H3.413a2.538 2.538 0 01-.187-.232 1.234 1.234 0 01-.073-.118.691.691 0 01-.075-.155c-.004-.008-.005-.017-.008-.026h4.103a4.891 4.891 0 00.045-.638z" opacity=".8" fill="url(#e)"/></svg>