<svg xmlns="http://www.w3.org/2000/svg" viewBox="0 0 9 9"><g data-name="Layer 2"><circle cx="4.5" cy="4.5" r="4.5" fill="#3c873c"/><path d="M4.499 4.657l-1.93-.16 1.93-1.059v1.22zm0 1.242v1.933L2.49 4.802 4.5 5.9zm0-2.803L2.49 4.182l2.01-3.02z" fill="#fff"/><path d="M6.429 4.497l-1.93.16V3.438l1.93 1.059zm-1.93 1.402c.568-.312 1.303-.714 2.007-1.098l-2.007 3.03zm0-2.803V1.162l2.007 3.02z" fill="#fff" fill-opacity=".601"/><path d="M4.499 4.657l1.93-.16-1.93 1.05z" style="isolation:isolate" fill="#fff" fill-rule="evenodd" opacity=".2"/><path d="M4.498 4.657l-1.93-.16 1.93 1.05z" style="isolation:isolate" fill="#fff" fill-rule="evenodd" opacity=".603"/><g opacity=".2" fill="#fff"><path d="M4.5 4.66L2.57 4.5 4.5 3.441v1.22zm0 1.242v1.933l-2.007-3.03c.704.384 1.438.786 2.007 1.098zm0-2.803L2.493 4.185 4.5 1.165z"/><path d="M6.43 4.5l-1.93.16V3.441L6.43 4.5zM4.5 5.903l2.007-1.099L4.5 7.834zm0-2.804V1.165l2.007 3.02z" fill-opacity=".601"/><path d="M4.5 4.66l1.93-.16L4.5 5.551z" style="isolation:isolate" fill-rule="evenodd" opacity=".2"/><path d="M4.5 4.66L2.57 4.5 4.5 5.551z" style="isolation:isolate" fill-rule="evenodd" opacity=".603"/></g></g></svg>