<svg data-name="CIRCLE OUTLINE BLACK" xmlns="http://www.w3.org/2000/svg" viewBox="0 0 512 512"><path d="M256 0C114.615 0 0 114.615 0 256s114.615 256 256 256 256-114.615 256-256S397.385 0 256 0zm170.64 181.74c-5.246 3.965-11.543 10.61-16.673 23.086-4.08 9.678-11.31 30.315-16.207 40.693-4.897 10.377-12.825 23.668-47.454 41.624-29.383 15.158-43.607 20.987-47.688 31.598a32.646 32.646 0 004.78 31.947c5.713 6.996 17.373 19.821 29.15 23.086s12.708 8.162 12.708 8.162a96.353 96.353 0 00-22.736-3.615c-12.126-.35-25.185 3.615-25.185 3.615 0-4.547 8.862-8.162 8.862-8.162s-.35-6.18-17.373-17.373a40.038 40.038 0 01-17.956-28.916s-28.216-1.865-29.732-1.865l17.49-5.13c-28.683-15.158-177.227 43.373-177.227 43.373v-3.847c-13.292 8.395-29.149 4.197-29.149 4.197l17.956-13.642H57.73l124.758-64.244-27.983-.35s107.502-69.024 134.902-85.465c27.4-16.44 44.423-20.987 51.07-25.884 6.645-4.897 22.735-20.987 31.247-26.467 8.51-5.48 21.104-13.759 33.463-12.126 13.175 1.632 20.404 8.161 26.467 12.942 5.713 4.547 23.553 20.054 23.553 20.054s-23.32 8.745-28.567 12.71z"/></svg>