<svg xmlns="http://www.w3.org/2000/svg" viewBox="0 0 402.799 402.799"><defs><clipPath id="a" transform="translate(-1014.45 -104.97)"><path fill="none" d="M1184.2 291.5l25.5 55.9 37.8-21.6v-43.4l-63.3 9.1z"/></clipPath><clipPath id="b" transform="translate(-1014.45 -104.97)"><path fill="none" d="M0 0h2811v8395.3H0z"/></clipPath><clipPath id="c" transform="translate(-1014.45 -104.97)"><path fill="none" d="M1296.4 249.9l-23.6-8.8-25.3-2.1v135.2l37.9 21.7 30.2-61.1-19.2-58.8v-26.1z"/></clipPath><clipPath id="d" transform="translate(-1014.45 -104.97)"><path fill="none" d="M1294.2 239l-8.8 21.7v134.8l37.9-21.7V239h-29.1z"/></clipPath><clipPath id="e" transform="translate(-1014.45 -104.97)"><path fill="none" d="M1285.4 217.3l-37.9 21.7 37.9 21.7 37.9-21.7-37.9-21.7z"/></clipPath><clipPath id="f" transform="translate(-1014.45 -104.97)"><path fill="none" d="M1209.7 304.1l-37.9-42.2-75.7-22.9v134.8l37.9 21.7 10.8-74.6 27 4.9 37.9 21.6v-43.3z"/></clipPath><clipPath id="g" transform="translate(-1014.45 -104.97)"><path fill="none" d="M1134 217.3l-37.9 21.7 113.6 65.1 17.1-9.8 20.7-11.9-113.5-65.1z"/></clipPath><clipPath id="h" transform="translate(-1014.45 -104.97)"><path fill="none" d="M1134 304.1v91.4l37.8-21.7v-48l-37.8-21.7z"/></clipPath></defs><circle cx="201.399" cy="201.399" r="201.399" fill="#2b6def"/><circle cx="201.399" cy="201.399" r="183.782" fill="#fff"/><g clip-path="url(#a)"><g clip-path="url(#b)"><path fill="#2bbdf7" d="M146.149 153.83h110.6v112.3h-110.6z"/></g></g><g clip-path="url(#c)"><g clip-path="url(#b)"><path fill="#2891f9" d="M209.45 110.43h115.3v204.1h-115.3z"/></g></g><g clip-path="url(#d)"><g clip-path="url(#b)"><path fill="#2bbdf7" d="M247.35 110.43h85.1v203.8h-85.1z"/></g></g><g clip-path="url(#e)"><g clip-path="url(#b)"><path fill="#2b6def" d="M209.45 88.73h123v90.6h-123z"/></g></g><g clip-path="url(#f)"><g clip-path="url(#b)"><path fill="#2891f9" d="M58.05 110.43h160.8v203.8H58.05z"/></g></g><g clip-path="url(#g)"><g clip-path="url(#b)"><path fill="#2b6def" d="M58.05 88.73h198.7v134H58.05z"/></g></g><g clip-path="url(#h)"><g clip-path="url(#b)"><path fill="#2bbdf7" d="M95.85 175.43h85.1v138.7h-85.1z"/></g></g></svg>