<svg xmlns="http://www.w3.org/2000/svg" viewBox="0 0 9 9"><defs><linearGradient id="a" x1="5.662" y1="818.116" x2="12.692" y2="825.812" gradientTransform="scale(1 -1) rotate(89.192 425.7 406.34)" gradientUnits="userSpaceOnUse"><stop offset="0"/><stop offset=".247" stop-color="#682a4c"/><stop offset=".513" stop-color="#dc59a1"/><stop offset="1" stop-color="#38a8e0"/></linearGradient><linearGradient id="b" x1="2.789" y1="2.796" x2="5.944" y2="5.804" gradientUnits="userSpaceOnUse"><stop offset="0" stop-color="#2eace3"/><stop offset=".023" stop-color="#3da5de"/><stop offset=".122" stop-color="#788bcb"/><stop offset=".214" stop-color="#a777bb"/><stop offset=".294" stop-color="#c868b0"/><stop offset=".36" stop-color="#dd5fa9"/><stop offset=".405" stop-color="#e45ca7"/><stop offset=".455" stop-color="#da589f"/><stop offset=".541" stop-color="#bd4c8b"/><stop offset=".654" stop-color="#903a69"/><stop offset=".789" stop-color="#50203b"/><stop offset=".941" stop-color="#010000"/><stop offset=".942"/></linearGradient><linearGradient id="c" x1="3.957" y1="2.814" x2="6.021" y2="4.682" gradientUnits="userSpaceOnUse"><stop offset="0" stop-color="#2eace3"/><stop offset=".024" stop-color="#40a4dd"/><stop offset=".094" stop-color="#728ecd"/><stop offset=".163" stop-color="#9b7cbf"/><stop offset=".231" stop-color="#bb6eb5"/><stop offset=".296" stop-color="#d264ad"/><stop offset=".357" stop-color="#df5ea9"/><stop offset=".411" stop-color="#e45ca7"/><stop offset=".461" stop-color="#dd59a2"/><stop offset=".531" stop-color="#cb5295"/><stop offset=".613" stop-color="#ad467f"/><stop offset=".704" stop-color="#833560"/><stop offset=".802" stop-color="#4e1f39"/><stop offset=".906" stop-color="#0d050a"/><stop offset=".926"/></linearGradient></defs><circle cx="4.5" cy="4.5" r="4.493" fill="#fff"/><path d="M8.65 4.559A4.15 4.15 0 114.559.35 4.155 4.155 0 018.65 4.559m.35.005A4.5 4.5 0 104.436 9 4.5 4.5 0 009 4.564z" fill="url(#a)"/><path d="M3.713 2.11a2.245 2.245 0 01.76.15A4.808 4.808 0 016.37 3.552a2.544 2.544 0 01.523.814.919.919 0 01.057.529.593.593 0 01-.102.218l-.94 1.313a.676.676 0 01-.5.272 1.869 1.869 0 01-.787-.1 4.476 4.476 0 01-1.404-.755 4.13 4.13 0 01-.907-.935 1.721 1.721 0 01-.307-.69.668.668 0 01.112-.523c.3-.415.603-.828.893-1.25a.751.751 0 01.61-.335c.031-.002.063 0 .094 0z" fill="url(#b)"/><path d="M3.71 2.275a2.053 2.053 0 01.687.135A4.645 4.645 0 016.28 3.7a2.367 2.367 0 01.455.716.758.758 0 01.063.393.406.406 0 01-.345.352 1.47 1.47 0 01-.66-.038 3.551 3.551 0 01-.933-.389 4.833 4.833 0 01-.994-.752 2.933 2.933 0 01-.63-.85.973.973 0 01-.104-.407.408.408 0 01.34-.427.914.914 0 01.238-.023zm-.742.795c0-.02.007-.036.027-.04.027-.005.037.013.044.036a1.563 1.563 0 00.1.266 2.574 2.574 0 00.436.609 5.266 5.266 0 00.459.44l.031.028c.02.017.038.038.015.062-.02.023-.041.009-.06-.008-.042-.037-.086-.073-.128-.111a4.12 4.12 0 01-.698-.78 1.72 1.72 0 01-.217-.461l-.01-.041z" fill="#fefefe"/><path d="M6.197 5.394a2.013 2.013 0 01-.296-.025c-.024-.004-.054-.007-.05-.041.003-.038.035-.033.06-.03a1.518 1.518 0 00.438.013c.025-.004.049.002.05.032s-.02.038-.045.04a1.178 1.178 0 01-.157.01z" fill="#fcfcfc"/><path d="M5.73 5.338c-.04-.012-.087-.023-.132-.037a.031.031 0 01-.023-.041.033.033 0 01.041-.024c.047.01.093.021.139.034a.032.032 0 01.022.043c-.006.02-.022.024-.046.025z" fill="#fafafa"/><path d="M4.333 3.018a1.283 1.283 0 01.526.147 2.279 2.279 0 01.86.703.932.932 0 01.133.257c.063.194-.021.313-.225.314a1.09 1.09 0 01-.436-.095 2.278 2.278 0 01-.976-.755.792.792 0 01-.145-.303.192.192 0 01.179-.263.258.258 0 01.031-.004h.053z" fill="url(#c)"/></svg>