<svg xmlns="http://www.w3.org/2000/svg" xmlns:xlink="http://www.w3.org/1999/xlink" viewBox="0 0 9 9"><defs><linearGradient id="b" x1="2.378" y1="2.459" x2="8.101" y2="7.964" gradientUnits="userSpaceOnUse"><stop offset="0" stop-color="#231f20"/><stop offset="1" stop-color="#3c2134"/></linearGradient><linearGradient id="c" x1="2.291" y1="2.192" x2="8.514" y2="8.694" gradientUnits="userSpaceOnUse"><stop offset="0" stop-color="#231f20"/><stop offset="1" stop-color="#3d2036"/></linearGradient><linearGradient id="a" x1="2.576" y1="4.413" x2="6.424" y2="4.413" gradientUnits="userSpaceOnUse"><stop offset="0" stop-color="#ff510f"/><stop offset=".348" stop-color="#ff6c11"/><stop offset="1" stop-color="#ffa714"/></linearGradient><linearGradient id="d" x1="5.394" y1="2.816" x2="6.003" y2="2.816" xlink:href="#a"/></defs><circle cx="4.5" cy="4.5" r="3.971" fill="url(#b)"/><path d="M4.5.645A3.855 3.855 0 11.645 4.5 3.859 3.859 0 014.5.645m0-.325A4.18 4.18 0 108.68 4.5 4.18 4.18 0 004.5.32z" fill="#fff"/><path d="M4.5.35A4.15 4.15 0 11.35 4.5 4.155 4.155 0 014.5.35m0-.35A4.5 4.5 0 109 4.5 4.5 4.5 0 004.5 0z" fill="url(#c)"/><path d="M3.238 3.557a3.162 3.162 0 00.292-.293 1.646 1.646 0 00.29-.311 1.396 1.396 0 00.408-1.119c-.004-.062-.035-.159.014-.18.058-.027.107.062.158.102.067.054.13.112.196.168l.02.018c.075.098.154.194.226.295a1.232 1.232 0 01.162.325c.035.05.029.113.054.165a1.51 1.51 0 01.024.487 1.484 1.484 0 01-.054.375.099.099 0 01-.013.046.402.402 0 00-.008.426.28.28 0 00.28.153.64.64 0 00.189-.034c.213-.054.288-.155.295-.396.027-.075.048-.08.098-.024a2.73 2.73 0 01.303.429.46.46 0 00.042.063c.037.114.106.214.14.33.013.045.019.092.028.138a1.838 1.838 0 010 .779 1.385 1.385 0 01-.89 1.001 1.749 1.749 0 00-.724.434.696.696 0 00-.119.175.104.104 0 01-.143.061c-.08-.025-.162-.038-.242-.06-.034-.029-.08-.023-.118-.038a3.694 3.694 0 01-.54-.258 3.536 3.536 0 01-.518-.448c-.04-.046-.082-.09-.123-.135a.489.489 0 01-.136-.196l-.12-.246c-.013-.032-.01-.071-.038-.097a.943.943 0 00-.04-.136 2.207 2.207 0 01.05-1.168c.006-.018.01-.037.014-.055a3.306 3.306 0 01.542-.776z" fill="url(#a)"/><path d="M5.771 3.347c-.037.081-.086.083-.157.035a.477.477 0 01-.164-.629 2.047 2.047 0 00.171-.276c.061-.07.03-.16.05-.26a1.58 1.58 0 01.297.528.405.405 0 01-.135.508.131.131 0 00-.062.094z" fill="url(#d)"/><path fill="#fefefe" d="M3.41 4.745v.677h.741v.748h.698v-.748h.741v-.677H3.41z"/></svg>