<svg xmlns="http://www.w3.org/2000/svg" viewBox="0 0 8.986 8.986"><defs><linearGradient id="a" x1="1.364" y1="2.031" x2="8.426" y2="7.589" gradientUnits="userSpaceOnUse"><stop offset="0" stop-color="#9c60a8"/><stop offset="1" stop-color="#269ff9"/></linearGradient></defs><circle cx="4.493" cy="4.493" r="4.493" fill="url(#a)"/><path d="M7.089 2.323a.288.288 0 00-.228.027l-.006.004-.003.006a685.568 685.568 0 01-1.695 3.395.367.367 0 01-.262.146h-.02a.57.57 0 01-.337-.141l-.067-.133-.006-.024-1.617-3.235.001.005c-.03-.055-.068-.056-.073-.056l-.266.003c-.194.002-.395.003-.611.01a.092.092 0 00-.063.046.213.213 0 00-.001.152l2.091 4.226.201.402.006.007a.512.512 0 00.346.16.399.399 0 00.21-.062.479.479 0 00.154-.148h.001l2.31-4.64a.11.11 0 00.006-.083.116.116 0 00-.071-.067z" fill="#fff"/></svg>