<svg xmlns="http://www.w3.org/2000/svg" viewBox="0 0 9 9"><defs><linearGradient id="a" x1="-114.69" y1="125.895" x2="-105.69" y2="125.895" gradientTransform="rotate(-90 -113.542 7.853)" gradientUnits="userSpaceOnUse"><stop offset="0" stop-color="#303533" stop-opacity=".31"/><stop offset="1" stop-color="#0098da"/></linearGradient><linearGradient id="b" x1="34230.792" y1="-53627.024" x2="34257.872" y2="-53670.489" gradientTransform="matrix(.0574 0 0 -.0574 -1966.709 -3083.775)" gradientUnits="userSpaceOnUse"><stop offset="0" stop-color="#f0f0f0"/><stop offset="1" stop-color="#c8cdd7"/></linearGradient></defs><g data-name="Layer 2"><g data-name="Layer 1"><g data-name="b959e08d-9a39-45e8-b342-c75764d662d8"><g data-name="abcd25b1-ad49-4fd6-802a-9c72bcd3fe8a"><path d="M1.948 6.29c0 .01 0 .01.01.02-.01-.01-.02-.01-.02-.02z" fill="#324664"/><circle cx="4.5" cy="4.5" r="4.49" fill="#fff"/><path d="M8.65 4.5A4.15 4.15 0 114.5.35 4.155 4.155 0 018.65 4.5m.35 0A4.5 4.5 0 104.5 9 4.5 4.5 0 009 4.5z" fill="url(#a)"/><path d="M6.392 3.232l-1.44-1.44a.64.64 0 00-.903 0L2.614 3.23a.212.212 0 00-.002.3l.002.002.435.434.289.27a.224.224 0 00.303 0l.58-.536a.412.412 0 01.563 0l.58.535a.224.224 0 00.304 0l.289-.269.434-.432a.216.216 0 000-.3z" fill="#0098da"/><path d="M1.794 4.953L4.05 7.207a.64.64 0 00.903 0l2.255-2.254c.39-.39.116-.506-.17-.778l-.354-.335a.222.222 0 00-.303 0l-.58.536a.412.412 0 01-.563 0l-.58-.536a.224.224 0 00-.304 0l-.58.536a.412.412 0 01-.563 0l-.58-.536a.224.224 0 00-.304 0L2 4.141c-.3.276-.613.402-.206.812z" fill="url(#b)"/></g></g></g></g></svg>