<svg xmlns="http://www.w3.org/2000/svg" viewBox="0 0 9 9"><g data-name="Layer 2"><circle cx="4.5" cy="4.5" r="4.5" fill="#2d82dc"/><path d="M4.92 2.558a1.507 1.507 0 00-.647 1.258 1.046 1.046 0 01-.522.909l-.027.018a1.064 1.064 0 01-1.501-.522 1.42 1.42 0 01-.045-.189 4.708 4.708 0 01-.108-.872.11.11 0 01.027-.018 5.11 5.11 0 012.4-.602c.144 0 .279.009.423.018zm.647 3.497a1.04 1.04 0 01-.216.648c-.045.045-.09.09-.144.134a4.86 4.86 0 01-.647.486c-.018.009-.018.018-.054.018a.086.086 0 01-.063-.018 5.172 5.172 0 01-1.879-2.122 1.541 1.541 0 001.376-.054.194.194 0 00.045-.027 1.09 1.09 0 011.025 0l.036.027a1.057 1.057 0 01.521.908zm1.368-2.888a5.211 5.211 0 01-.911 2.744 1.537 1.537 0 00-.735-1.167l-.04-.02a1.069 1.069 0 01-.519-.92v-.01a1.073 1.073 0 011.068-1.049.792.792 0 01.157.01l.186.059a4.612 4.612 0 01.716.304l.049.03z" fill="#fff"/><path d="M4.5 8.425A3.925 3.925 0 118.425 4.5 3.93 3.93 0 014.5 8.425zm0-7.6A3.675 3.675 0 108.175 4.5 3.679 3.679 0 004.5.825z" fill="#fff"/></g></svg>