<svg xmlns="http://www.w3.org/2000/svg" viewBox="0 0 9 9"><g data-name="Layer 2"><circle cx="4.5" cy="4.5" r="4.5" fill="#3c87c8"/><path d="M6.496 3.157a4.138 4.138 0 00-.212-1.214 3.028 3.028 0 00-1.449.298 2.563 2.563 0 00-1.034 1.018c-.117.211-.376.658-.376.658a2.35 2.35 0 00-1.01.235 2.22 2.22 0 00-.72.713 2.197 2.197 0 01.58-.078 1.824 1.824 0 01.563.125.469.469 0 00-.054.25.6.6 0 00.211.259.427.427 0 01-.055.07c-.423.596-.517 1.254-.211 1.473.305.212.893-.094 1.316-.697a.33.33 0 00.039-.055.48.48 0 00.259.11.488.488 0 00.281-.164 3.432 3.432 0 01.36.548 2.11 2.11 0 01.102.517 2.135 2.135 0 00.431-.948 1.45 1.45 0 00-.149-.963s.282-.345.58-.705a2.25 2.25 0 00.548-1.45zM3.942 6.134c-.282.376-.681.556-.893.4s-.156-.588.126-.971c.117.078.235.164.336.235.134.101.29.227.439.329a.008.008 0 00-.008.007zm1.073-1.95a.63.63 0 110-1.261.63.63 0 110 1.26z" fill="#fff"/></g></svg>