<svg xmlns="http://www.w3.org/2000/svg" viewBox="0 0 9 9"><defs><linearGradient id="a" x1="-604.789" y1="1145.44" x2="-604.73" y2="1145.44" gradientTransform="scale(122.4123 -122.4123) rotate(45 1080.352 1302.756)" gradientUnits="userSpaceOnUse"><stop offset="0" stop-color="#cf8724"/><stop offset="1" stop-color="#fdce58"/></linearGradient></defs><g data-name="Layer 2"><g data-name="Vector"><path data-name="path0 fill" d="M4.5 8.224A3.724 3.724 0 118.224 4.5 3.734 3.734 0 014.5 8.224z" fill="url(#a)"/></g><g data-name="Vector"><path data-name="path1 fill" d="M4.5 9A4.5 4.5 0 119 4.5 4.513 4.513 0 014.5 9zm0-8A3.5 3.5 0 108 4.5 3.51 3.51 0 004.5 1z"/></g><g data-name="Vector"><path data-name="path2 fill" d="M4.246 5.507h1.727v.864h-1.02v.73h-.886v-.707H3.004a3.534 3.534 0 01.023-.842c.023-.132.177-.265.288-.398.333-.399.665-.797 1.02-1.196.133-.156.265-.288.42-.465h-1.66v-.864h.974V1.9h.864v.708h1.063a3.534 3.534 0 01-.023.84c-.023.133-.177.266-.288.4-.333.398-.665.796-1.02 1.195-.133.156-.265.31-.42.465z"/></g></g></svg>